<svg width="512" height="512" viewBox="0 0 512 512" fill="none" xmlns="http://www.w3.org/2000/svg">
  <rect width="512" height="512" rx="64" fill="#1a73e8"/>
  <path d="M256 128C207.2 128 168 167.2 168 216V296C168 344.8 207.2 384 256 384C304.8 384 344 344.8 344 296V216C344 167.2 304.8 128 256 128ZM312 296C312 327.2 287.2 352 256 352C224.8 352 200 327.2 200 296V216C200 184.8 224.8 160 256 160C287.2 160 312 184.8 312 216V296Z" fill="white"/>
  <circle cx="256" cy="256" r="40" fill="white"/>
  <path d="M256 200C234.9 200 218 216.9 218 238V274C218 295.1 234.9 312 256 312C277.1 312 294 295.1 294 274V238C294 216.9 277.1 200 256 200Z" fill="#1a73e8"/>
</svg>